<?xml version="1.0" encoding="UTF-8" standalone="no"?>
<!DOCTYPE svg PUBLIC "-//W3C//DTD SVG 1.1//EN" "http://www.w3.org/Graphics/SVG/1.1/DTD/svg11.dtd">
<svg width="100%" height="100%" viewBox="0 0 51 51" version="1.1" xmlns="http://www.w3.org/2000/svg" xmlns:xlink="http://www.w3.org/1999/xlink" xml:space="preserve" xmlns:serif="http://www.serif.com/" style="fill-rule:evenodd;clip-rule:evenodd;stroke-linejoin:round;stroke-miterlimit:2;">
    <g transform="matrix(1,0,0,1,-1782,-77.6697)">
        <rect id="Artboard1" x="0" y="0" width="1920" height="1080" style="fill:none;"/>
        <g id="Artboard11" serif:id="Artboard1">
            <g transform="matrix(1,0,0,1,-73,5.88991)">
                <path d="M1905.22,78.057C1905.22,74.593 1902.41,71.78 1898.94,71.78L1861.28,71.78C1857.81,71.78 1855,74.593 1855,78.057L1855,115.722C1855,119.187 1857.81,122 1861.28,122L1898.94,122C1902.41,122 1905.22,119.187 1905.22,115.722L1905.22,78.057Z" style="fill:rgb(153,153,153);"/>
            </g>
            <g transform="matrix(1,0,0,1,132.957,-83.9076)">
                <g transform="matrix(38,0,0,38,1661.67,199.275)">
                    <path d="M0.077,-0L0.077,-0.71L0.221,-0.71L0.221,-0.121L0.581,-0.121L0.581,-0L0.077,-0Z" style="fill:white;fill-rule:nonzero;"/>
                </g>
            </g>
        </g>
    </g>
</svg>
